<?xml version="1.0" standalone="no"?>
<!DOCTYPE svg PUBLIC "-//W3C//DTD SVG 20010904//EN"
 "http://www.w3.org/TR/2001/REC-SVG-20010904/DTD/svg10.dtd">
<svg version="1.0" xmlns="http://www.w3.org/2000/svg"
 width="1280.000000pt" height="1205.000000pt" viewBox="0 0 1280.000000 1205.000000"
 preserveAspectRatio="xMidYMid meet">
<metadata>
Created by potrace 1.15, written by Peter Selinger 2001-2017
</metadata>
<g transform="translate(0.000000,1205.000000) scale(0.100000,-0.100000)"
fill="#000000" stroke="none">
<path d="M11980 12044 c-899 -59 -2522 -361 -4586 -854 -1699 -406 -3576 -942
-4839 -1380 -1550 -539 -2343 -945 -2511 -1285 l-39 -79 0 -136 c1 -144 9
-195 56 -357 236 -811 1261 -2029 3083 -3662 136 -123 263 -229 281 -236 l32
-14 -23 -102 c-56 -249 -79 -568 -70 -984 19 -947 198 -1819 426 -2078 166
-188 330 -120 779 318 215 210 636 667 875 948 27 31 52 57 56 57 4 0 61 -44
126 -98 66 -54 245 -197 399 -318 1185 -932 2083 -1495 2715 -1704 320 -106
445 -104 637 11 67 41 233 196 313 293 70 86 206 285 287 421 639 1065 1434
3330 2068 5890 396 1600 636 2896 731 3955 25 270 25 743 2 890 -18 109 -49
223 -75 275 -28 54 -84 115 -126 136 -23 12 -53 32 -67 45 -14 12 -45 28 -70
34 -45 11 -358 21 -460 14z"/>
</g>
</svg>
